<svg width="24" height="24" viewBox="0 0 24 24" fill="none" xmlns="http://www.w3.org/2000/svg">
  <path d="M16 1H8C4.69 1 2 3.69 2 7V17C2 20.31 4.69 23 8 23H16C19.31 23 22 20.31 22 17V7C22 3.69 19.31 1 16 1ZM20 17C20 19.21 18.21 21 16 21H8C5.79 21 4 19.21 4 17V7C4 4.79 5.79 3 8 3H16C18.21 3 20 4.79 20 7V17ZM17 5.5C16.17 5.5 15.5 6.17 15.5 7C15.5 7.83 16.17 8.5 17 8.5C17.83 8.5 18.5 7.83 18.5 7C18.5 6.17 17.83 5.5 17 5.5ZM12 7C9.79 7 8 8.79 8 11C8 13.21 9.79 15 12 15C14.21 15 16 13.21 16 11C16 8.79 14.21 7 12 7ZM12 13C10.9 13 10 12.1 10 11C10 9.9 10.9 9 12 9C13.1 9 14 9.9 14 11C14 12.1 13.1 13 12 13Z" fill="#E1306C"/>
</svg>
