<svg width="24" height="24" viewBox="0 0 24 24" fill="none" xmlns="http://www.w3.org/2000/svg">
  <path d="M12 0C5.373 0 0 5.373 0 12C0 18.627 5.373 24 12 24C18.627 24 24 18.627 24 12C24 5.373 18.627 0 12 0ZM17.372 7.632L14.41 17.28C14.208 17.977 13.812 18.091 13.272 17.769L10.856 15.97L9.731 17.058C9.529 17.262 9.354 17.437 8.954 17.437L9.149 14.978L15.963 8.97C16.25 8.717 15.919 8.575 15.564 8.818L7.756 13.828L5.347 13.064C4.673 12.849 4.656 12.385 5.433 12.064L16.968 7.056C17.458 6.845 17.898 7.128 17.372 7.632Z" fill="#0088cc"/>
</svg>
